<svg width="44" height="34" viewBox="0 0 44 34" fill="none" xmlns="http://www.w3.org/2000/svg">
<path d="M37.0141 3.22728C34.252 1.95972 31.2923 1.02639 28.1959 0.492458C28.1391 0.481948 28.0823 0.507174 28.055 0.559727C27.6745 1.2366 27.252 2.12158 26.9577 2.81527C23.628 2.31707 20.3151 2.31707 17.0527 2.81527C16.7563 2.10476 16.319 1.2366 15.9365 0.559727C15.907 0.509276 15.8503 0.48405 15.7956 0.492458C12.7014 1.02639 9.73952 1.95972 6.97737 3.22728C6.95425 3.23779 6.93322 3.25461 6.9185 3.27773C1.30171 11.6693 -0.237059 19.8548 0.517592 27.9395C0.521796 27.9794 0.542821 28.0172 0.574352 28.0404C4.28034 30.7626 7.87076 32.4148 11.3939 33.51C11.4506 33.5268 11.5095 33.5058 11.5452 33.4596C12.3776 32.3223 13.1218 31.122 13.7587 29.8587C13.7966 29.7851 13.7587 29.6968 13.683 29.6674C12.5037 29.2196 11.3833 28.6752 10.3028 28.0572C10.2167 28.0067 10.2104 27.8848 10.2882 27.826C10.5152 27.6557 10.7422 27.4791 10.9587 27.3004C10.9987 27.2668 11.0533 27.2605 11.0995 27.2815C18.1899 30.5187 25.8668 30.5187 32.873 27.2815C32.9193 27.2584 32.9739 27.2668 33.0139 27.2983C33.2304 27.477 33.4574 27.6557 33.6865 27.826C33.7643 27.8848 33.7601 28.0067 33.6739 28.0572C32.5956 28.6878 31.473 29.2217 30.2917 29.6674C30.2139 29.6968 30.1802 29.7851 30.2181 29.8608C30.8697 31.1199 31.6118 32.3202 32.4295 33.4596C32.4631 33.5079 32.5241 33.5289 32.5808 33.5121C36.1207 32.4169 39.7111 30.7647 43.4171 28.0425C43.4486 28.0194 43.4697 27.9815 43.4739 27.9437C44.3778 18.5978 41.9604 10.4795 37.0688 3.28194C37.0562 3.25882 37.0373 3.2399 37.012 3.22939L37.0141 3.22728ZM14.8139 23.0164C12.6782 23.0164 10.9209 21.0572 10.9209 18.6503C10.9209 16.2434 12.6467 14.2843 14.8139 14.2843C16.9812 14.2843 18.7427 16.2624 18.707 18.6503C18.707 21.0572 16.9812 23.0164 14.8139 23.0164ZM29.2111 23.0164C27.0754 23.0164 25.3181 21.0572 25.3181 18.6503C25.3181 16.2434 27.0439 14.2843 29.2111 14.2843C31.3784 14.2843 33.14 16.2624 33.1042 18.6503C33.1042 21.0572 31.3973 23.0164 29.2111 23.0164Z" fill="white"/>
</svg>
