<svg width="37" height="45" viewBox="0 0 37 45" fill="none" xmlns="http://www.w3.org/2000/svg">
<path fill-rule="evenodd" clip-rule="evenodd" d="M15.0221 22.5377C17.5614 20.368 19.5057 18.5488 21.5603 16.951C23.64 15.4601 26.1783 14.7491 28.7298 14.9428C31.2813 15.1366 33.6831 16.2226 35.5139 18.0104C36.9704 19.5149 37.355 21.2119 36.2708 23.0065C35.4082 24.3658 34.3763 25.61 33.1999 26.7091C32.1591 27.5561 31.0557 28.3231 29.8991 29.0035C30.5391 30.2411 31.1022 31.5171 31.5852 32.8241C31.7607 33.2988 31.8263 33.807 31.7771 34.3107C31.728 34.8144 31.5653 35.3004 31.3014 35.7322C31.0375 36.1641 30.6792 36.5305 30.2534 36.804C29.8276 37.0775 29.3453 37.251 28.8428 37.3114C26.954 37.61 25.1688 37.4912 23.8013 35.937C21.5536 33.3065 19.117 30.8243 17.0647 28.0531C16.1167 26.6666 15.8344 24.7506 15.0221 22.5377Z" fill="#D27815"/>
<path fill-rule="evenodd" clip-rule="evenodd" d="M3.25 10.0385C5.7294 7.99885 6.81724 8.05582 9.71822 9.77295C10.9737 10.4443 12.0134 11.4574 12.7171 12.695C13.4208 13.9326 13.7597 15.3442 13.6946 16.7664C13.7482 17.3819 13.5783 17.9961 13.216 18.4965C12.8537 18.9969 12.3232 19.3501 11.7218 19.4913C7.05633 20.435 3.87093 19.3599 2.16554 16.266C0.644774 13.5011 0.748903 12.0836 3.25 10.0385Z" fill="#D27815"/>
<path fill-rule="evenodd" clip-rule="evenodd" d="M21.0385 0.00779754C26.656 2.8105 27.8925 4.85808 26.8395 8.9673C26.1248 11.7483 22.7829 13.2096 20.7 11.3723C19.1099 9.84128 17.7698 8.07034 16.7285 6.12405C16.5944 5.65724 16.5698 5.16583 16.6565 4.68798C16.7432 4.21012 16.9389 3.75869 17.2284 3.36872C18.4015 2.14318 19.6761 1.01887 21.0385 0.00779754Z" fill="#D27815"/>
<path fill-rule="evenodd" clip-rule="evenodd" d="M19.7088 37.3819C18.9765 38.8493 18.2982 40.5338 17.336 42.04C16.6568 42.9202 15.7198 43.5663 14.6557 43.8885C13.5916 44.2106 12.4535 44.1925 11.4001 43.8369C9.43948 42.8815 8.15082 40.1419 9.00747 38.1734C9.45882 37.04 10.2085 36.0498 11.1771 35.3079C12.1456 34.5659 13.2969 34.1 14.5088 33.9594C17.2123 33.5828 18.7889 34.6428 19.7088 37.3819Z" fill="#D27815"/>
<path fill-rule="evenodd" clip-rule="evenodd" d="M9.47072 31.727C7.0202 34.0314 5.20074 34.3497 3.09148 33.3897C0.646207 32.2829 -0.197127 29.1101 1.87491 27.4711C3.45365 26.2286 5.32148 25.4064 7.30402 25.0813C8.28693 24.9385 9.69483 26.3399 10.5523 27.3434C10.9096 27.8482 11.0842 28.4596 11.0474 29.0769C11.0106 29.6942 10.7645 30.2805 10.3497 30.7392C10.1072 31.1101 9.81097 31.443 9.47072 31.727Z" fill="#D27815"/>
</svg>
