<svg width="39" height="38" viewBox="0 0 39 38" fill="none" xmlns="http://www.w3.org/2000/svg">
<path fill-rule="evenodd" clip-rule="evenodd" d="M17.1382 18.3788C20.3387 17.4236 22.8533 16.5479 25.379 15.9193C27.8844 15.3986 30.4931 15.7768 32.7474 16.9875C35.0018 18.1981 36.7578 20.164 37.7074 22.5401C38.4297 24.5057 38.0939 26.213 36.3758 27.4146C35.0364 28.308 33.589 29.0275 32.0682 29.5559C30.7735 29.9087 29.454 30.1629 28.1209 30.3165C28.2048 31.7074 28.2028 33.102 28.115 34.4926C28.0831 34.9977 27.9372 35.489 27.6882 35.9296C27.4392 36.3702 27.0937 36.7487 26.6775 37.0366C26.2613 37.3245 25.7852 37.5144 25.2851 37.592C24.785 37.6695 24.2738 37.6328 23.7899 37.4845C21.942 36.9924 20.358 36.1607 19.7373 34.1857C18.7478 30.8702 17.5254 27.6138 16.7716 24.2488C16.4665 22.5971 16.9845 20.731 17.1382 18.3788Z" fill="#D27815"/>
<path fill-rule="evenodd" clip-rule="evenodd" d="M11.4382 2.18238C14.5313 1.32187 15.5028 1.81461 17.4596 4.55966C18.3355 5.68203 18.8757 7.02945 19.0178 8.44603C19.1598 9.86261 18.8979 11.2905 18.2623 12.5644C18.062 13.1488 17.6579 13.6416 17.1239 13.9523C16.59 14.2631 15.9619 14.3711 15.3548 14.2566C10.707 13.2296 8.23011 10.9563 7.92415 7.43681C7.65373 4.29284 8.32312 3.03903 11.4382 2.18238Z" fill="#D27815"/>
<path fill-rule="evenodd" clip-rule="evenodd" d="M31.7652 0.217045C35.7658 5.05498 36.067 7.42796 33.4397 10.7584C31.6597 13.0116 28.0124 12.9939 26.8522 10.4703C26.0186 8.42642 25.5107 6.26443 25.347 4.06316C25.4136 3.58209 25.5902 3.12283 25.863 2.72106C26.1358 2.31928 26.4976 1.9858 26.9202 1.74651C28.4892 1.10124 30.11 0.589594 31.7652 0.217045Z" fill="#D27815"/>
<path fill-rule="evenodd" clip-rule="evenodd" d="M15.4102 33.849C14.1463 34.8941 12.8439 36.1594 11.354 37.1467C10.3764 37.6763 9.25799 37.8875 8.15465 37.751C7.0513 37.6145 6.01803 37.137 5.19906 36.3851C3.79343 34.7174 3.72499 31.6906 5.30556 30.2379C6.17737 29.3844 7.26389 28.7828 8.44994 28.4968C9.63599 28.2108 10.8774 28.2511 12.0423 28.6135C14.6667 29.3643 15.6787 30.972 15.4102 33.849Z" fill="#D27815"/>
<path fill-rule="evenodd" clip-rule="evenodd" d="M8.34035 24.5317C5.16644 25.6459 3.37403 25.1999 1.8344 23.4679C0.0470703 21.4654 0.561237 18.2229 3.11957 17.5637C5.06629 17.0672 7.10706 17.0721 9.05137 17.5779C10.0079 17.8456 10.7274 19.6971 11.1049 20.962C11.2271 21.5682 11.1391 22.1979 10.8554 22.7474C10.5717 23.2968 10.1092 23.7332 9.54416 23.9846C9.17216 24.2255 8.76648 24.4099 8.34035 24.5317Z" fill="#D27815"/>
</svg>
