<svg width="18" height="18" viewBox="0 0 18 18" fill="none" xmlns="http://www.w3.org/2000/svg">
<path fill-rule="evenodd" clip-rule="evenodd" d="M3.52811 0.166627L9.02639 0.166627C9.37658 0.166616 9.68037 0.166607 9.93214 0.183785C10.1977 0.201904 10.4657 0.241888 10.7312 0.351854C11.3274 0.598822 11.8011 1.07253 12.0481 1.66876C12.158 1.93425 12.198 2.20223 12.2161 2.46779C12.2333 2.71955 12.2333 3.02335 12.2333 3.37354V3.39996C12.2333 3.8602 11.8602 4.23329 11.4 4.23329C10.9397 4.23329 10.5666 3.8602 10.5666 3.39996C10.5666 3.01581 10.5662 2.76942 10.5533 2.58124C10.541 2.40054 10.5201 2.33512 10.5083 2.30657C10.4305 2.11872 10.2812 1.96947 10.0934 1.89165C10.0648 1.87983 9.99938 1.85891 9.81868 1.84659C9.6305 1.83375 9.38412 1.83329 8.99996 1.83329H3.55996C3.09817 1.83329 2.80194 1.83394 2.57694 1.85233C2.36167 1.86991 2.28597 1.89949 2.2519 1.91686C2.10764 1.99036 1.99036 2.10764 1.91686 2.2519C1.89949 2.28597 1.86991 2.36167 1.85233 2.57694C1.83394 2.80194 1.83329 3.09817 1.83329 3.55996V8.99996C1.83329 9.38412 1.83375 9.6305 1.84659 9.81868C1.85891 9.99938 1.87983 10.0648 1.89165 10.0934C1.96947 10.2812 2.11872 10.4305 2.30657 10.5083C2.33512 10.5201 2.40054 10.541 2.58124 10.5533C2.76942 10.5662 3.01581 10.5666 3.39996 10.5666C3.8602 10.5666 4.23329 10.9397 4.23329 11.4C4.23329 11.8602 3.8602 12.2333 3.39996 12.2333H3.37354C3.02335 12.2333 2.71955 12.2333 2.46779 12.2161C2.20223 12.198 1.93425 12.158 1.66876 12.0481C1.07253 11.8011 0.598822 11.3274 0.351854 10.7312C0.241888 10.4657 0.201904 10.1977 0.183785 9.93214C0.166607 9.68037 0.166616 9.37658 0.166627 9.02639L0.166627 3.52811C0.166611 3.10727 0.166598 2.74226 0.191194 2.44122C0.217203 2.12289 0.274816 1.80344 0.431845 1.49525C0.665137 1.03739 1.03739 0.665137 1.49525 0.431845C1.80344 0.274816 2.12289 0.217203 2.44122 0.191194C2.74226 0.166598 3.10727 0.166611 3.52811 0.166627ZM9.12811 5.76663H14.4718C14.8926 5.76661 15.2577 5.7666 15.5587 5.79119C15.877 5.8172 16.1965 5.87482 16.5047 6.03185C16.9625 6.26514 17.3348 6.63739 17.5681 7.09525C17.7251 7.40344 17.7827 7.72289 17.8087 8.04122C17.8333 8.34226 17.8333 8.70726 17.8333 9.12809V14.4718C17.8333 14.8927 17.8333 15.2577 17.8087 15.5587C17.7827 15.877 17.7251 16.1965 17.5681 16.5047C17.3348 16.9625 16.9625 17.3348 16.5047 17.5681C16.1965 17.7251 15.877 17.7827 15.5587 17.8087C15.2577 17.8333 14.8927 17.8333 14.4718 17.8333H9.12809C8.70726 17.8333 8.34226 17.8333 8.04122 17.8087C7.72289 17.7827 7.40344 17.7251 7.09525 17.5681C6.63739 17.3348 6.26514 16.9625 6.03185 16.5047C5.87482 16.1965 5.8172 15.877 5.79119 15.5587C5.7666 15.2577 5.76661 14.8926 5.76663 14.4718V9.12811C5.76661 8.70727 5.7666 8.34226 5.79119 8.04122C5.8172 7.72289 5.87482 7.40344 6.03185 7.09525C6.26514 6.63739 6.63739 6.26514 7.09525 6.03185C7.40344 5.87482 7.72289 5.8172 8.04122 5.79119C8.34226 5.7666 8.70727 5.76661 9.12811 5.76663ZM8.17694 7.45233C7.96167 7.46991 7.88597 7.4995 7.8519 7.51686C7.70764 7.59036 7.59036 7.70764 7.51686 7.8519C7.4995 7.88597 7.46991 7.96167 7.45233 8.17694C7.43394 8.40194 7.43329 8.69817 7.43329 9.15996V14.44C7.43329 14.9018 7.43394 15.198 7.45233 15.423C7.46991 15.6382 7.4995 15.7139 7.51686 15.748C7.59036 15.8923 7.70764 16.0096 7.8519 16.0831C7.88597 16.1004 7.96167 16.13 8.17694 16.1476C8.40194 16.166 8.69817 16.1666 9.15996 16.1666H14.44C14.9018 16.1666 15.198 16.166 15.423 16.1476C15.6382 16.13 15.7139 16.1004 15.748 16.0831C15.8923 16.0096 16.0096 15.8923 16.0831 15.748C16.1004 15.7139 16.13 15.6382 16.1476 15.423C16.166 15.198 16.1666 14.9018 16.1666 14.44V9.15996C16.1666 8.69817 16.166 8.40194 16.1476 8.17694C16.13 7.96167 16.1004 7.88597 16.0831 7.8519C16.0096 7.70764 15.8923 7.59036 15.748 7.51686C15.7139 7.4995 15.6382 7.46991 15.423 7.45233C15.198 7.43394 14.9018 7.43329 14.44 7.43329H9.15996C8.69817 7.43329 8.40194 7.43394 8.17694 7.45233Z" fill="#3D3D3D"/>
</svg>
